PathFileType	4	(X/Y/Z)	/Users/itak/Documents/Research/Walk-IL/dataset/trc/00302_00010.trc
DataRate	CameraRate	NumFrames	NumMarkers	Units	OrigDataRate	OrigDataStartFrame	OrigNumFrames
100.000000	100.000000	4	55	mm	100.000000	197	395
Frame#	Time	RPSI			LPSI			L3			STRN			T10			C7			CLAV			RBAK			LBAK			LSHO			LUPA			LAEL			LAOL			LWPS			LFRA			LIFD			LHPS			LHTS			RSHO			RUPA			RAEL			RAOL			RWTS			RWPS			RFRA			RIFD			RHPS			RBHD			LFHD			RFHD			LBHD			LHIP			RHIP			RASI			LASI			LKNE			LTHI			LANK			LTIP			LTOE			LMT1			LMT5			LHEE			RKNE			RTHI			RTIP			RTOE			RMT1			RMT5			RHEE			LWTS			RHTS			RANK			*53			*54			
		X1	Y1	Z1	X2	Y2	Z2	X3	Y3	Z3	X4	Y4	Z4	X5	Y5	Z5	X6	Y6	Z6	X7	Y7	Z7	X8	Y8	Z8	X9	Y9	Z9	X10	Y10	Z10	X11	Y11	Z11	X12	Y12	Z12	X13	Y13	Z13	X14	Y14	Z14	X15	Y15	Z15	X16	Y16	Z16	X17	Y17	Z17	X18	Y18	Z18	X19	Y19	Z19	X20	Y20	Z20	X21	Y21	Z21	X22	Y22	Z22	X23	Y23	Z23	X24	Y24	Z24	X25	Y25	Z25	X26	Y26	Z26	X27	Y27	Z27	X28	Y28	Z28	X29	Y29	Z29	X30	Y30	Z30	X31	Y31	Z31	X32	Y32	Z32	X33	Y33	Z33	X34	Y34	Z34	X35	Y35	Z35	X36	Y36	Z36	X37	Y37	Z37	X38	Y38	Z38	X39	Y39	Z39	X40	Y40	Z40	X41	Y41	Z41	X42	Y42	Z42	X43	Y43	Z43	X44	Y44	Z44	X45	Y45	Z45	X46	Y46	Z46	X47	Y47	Z47	X48	Y48	Z48	X49	Y49	Z49	X50	Y50	Z50	X51	Y51	Z51	X52	Y52	Z52	X53	Y53	Z53	X54	Y54	Z54	X55	Y55	Z55	

198	1.97	304.3599548339844	965.3544921875	63.32468414306641	130.4965362548828	968.4834594726562	41.97179412841797	199.9090423583984	1036.637451171875	41.40312194824219	215.1464080810547	1222.789184570312	-202.6526031494141	178.1771240234375	1150.788940429688	56.88207244873047	149.1226959228516	1394.960205078125	14.36491584777832	192.6015930175781	1320.805419921875	-140.1481170654297	221.5542755126953	1263.018920898438	77.67194366455078	45.92956161499023	1350.887573242188	8.747199058532715	13.79504108428955	1357.638671875	-90.92076873779297	-53.50788497924805	1234.794311523438	-103.3762054443359	-34.72842025756836	1048.353515625	-183.6541442871094	-4.033717155456543	1009.926940917969	-110.6179351806641	36.41289138793945	884.4215087890625	-340.9452209472656	-10.54435920715332	969.8914794921875	-246.546875	157.0403289794922	778.4549560546875	-435.8002624511719	68.7635498046875	818.8778686523438	-390.650146484375	119.7203063964844	856.678466796875	-409.2598266601562	317.3243713378906	1391.286376953125	-14.63264846801758	380.8420715332031	1342.8095703125	13.90923309326172	439.5072326660156	1091.53955078125	80.85548400878906	348.2779846191406	1069.332885742188	62.93862915039062	473.8291931152344	856.0492553710938	4.973564624786377	515.5289916992188	869.6088256835938	78.42474365234375	470.614013671875	1027.030883789062	76.73137664794922	490.0292663574219	673.130615234375	38.60107040405273	533.8826293945312	756.1810913085938	77.9630126953125	243.2336273193359	1533.8408203125	7.119918346405029	126.1489868164062	1615.724731445312	-150.6779479980469	218.8107757568359	1610.345458984375	-150.2335205078125	96.51085662841797	1533.313232421875	2.745035648345947	40.57356262207031	924.7398071289062	-38.53618621826172	415.4983520507812	917.9349365234375	-30.14022254943848	352.0049133300781	933.1355590820312	-152.2927093505859	98.82647705078125	926.4559936523438	-173.10302734375	106.3902206420898	462.3045043945312	-49.32266616821289	74.69858551025391	602.9916381835938	-68.08454895019531	119.4743118286133	49.26616287231445	138.6220092773438	104.2502517700195	246.8152465820312	45.24410629272461	268.6337890625	36.19722747802734	-16.49033355712891	269.0009765625	32.7468147277832	64.20046234130859	164.4655151367188	37.47639083862305	23.52270317077637	153.6380920410156	53.67873764038086	206.3451690673828	409.8897705078125	479.8666076660156	-213.2636260986328	430.3012084960938	725.2030029296875	-128.2040252685547	411.9582824707031	380.4120483398438	-275.9848937988281	359.5396118164062	152.1060485839844	-557.180908203125	321.5990905761719	124.4391250610352	-506.0171203613281	433.0206604003906	92.16197967529297	-489.1102600097656	369.9361267089844	39.86294555664062	-339.0637512207031	98.63683319091797	918.5807495117188	-329.8047790527344	511.0502624511719	741.3541870117188	12.16290760040283	418.012451171875	58.86494064331055	-389.371337890625	nan	nan	nan	nan	nan	nan	
199	1.98	307.4229125976562	963.22314453125	55.76786804199219	133.6012115478516	966.9449462890625	34.81868362426758	203.1585540771484	1035.05126953125	34.50008773803711	218.1885681152344	1221.168334960938	-209.8890075683594	181.7262878417969	1149.139404296875	49.80866622924805	152.9057312011719	1393.407592773438	7.370400428771973	195.8664703369141	1319.184936523438	-147.3609466552734	225.3865814208984	1261.3017578125	70.38066101074219	49.67304992675781	1349.453247070312	2.150764942169189	17.07987785339355	1356.036865234375	-97.40004730224609	-50.69095993041992	1232.97021484375	-108.3450317382812	-32.77606201171875	1045.836181640625	-186.7752227783203	-0.8400218486785889	1007.849243164062	-113.8079528808594	38.25675201416016	883.3982543945312	-345.2467956542969	-8.607366561889648	967.8157958984375	-249.8577423095703	159.4381256103516	780.5043334960938	-442.9244079589844	70.61701965332031	818.947509765625	-396.1271667480469	121.1151733398438	857.7721557617188	-415.0003662109375	321.0578308105469	1389.454833984375	-22.13159370422363	384.5195007324219	1340.8916015625	6.334512710571289	442.84814453125	1089.520874023438	73.15950012207031	351.6316223144531	1066.961303710938	54.78241348266602	478.2076721191406	854.2723388671875	-2.875957012176514	519.212646484375	867.7562866210938	70.98665618896484	474.1158752441406	1025.074829101562	69.15704345703125	494.9055480957031	671.2952880859375	30.31345367431641	538.0250854492188	754.4575805664062	70.37263488769531	247.11376953125	1532.12646484375	0.162464514374733	129.1365356445312	1614.318969726562	-156.8043365478516	221.8024139404297	1609.065307617188	-156.8854522705078	100.3744277954102	1531.450927734375	-3.454512357711792	43.33048629760742	923.4237060546875	-45.39664840698242	418.2209167480469	915.6927490234375	-38.05019378662109	354.5062866210938	931.2556762695312	-160.1472015380859	101.3437194824219	924.8319091796875	-180.1472625732422	107.9970321655273	461.129638671875	-54.07680892944336	76.63108825683594	601.7809448242188	-73.64429473876953	120.0106430053711	49.91228485107422	138.6167907714844	105.2587890625	246.5340728759766	42.79230117797852	268.818115234375	35.9670524597168	-16.54508209228516	269.2057495117188	32.75761795043945	64.09761810302734	164.6802368164062	37.62375259399414	23.49977111816406	154.0486297607422	54.90575790405273	206.2758178710938	409.7167358398438	479.0989990234375	-224.4408569335938	432.1048583984375	723.6121215820312	-137.443603515625	410.7791748046875	378.616455078125	-287.0396728515625	357.0841674804688	148.0726013183594	-564.6736450195312	318.9393310546875	120.5593109130859	-513.6544189453125	430.3160705566406	88.62873077392578	-495.645751953125	366.7413330078125	37.55504608154297	-345.7820434570312	100.1876525878906	918.4234619140625	-334.6611633300781	515.9374389648438	739.7510375976562	4.335066318511963	414.9936828613281	56.23519897460938	-396.0472717285156	nan	nan	nan	nan	nan	nan	
200	1.99	310.4798583984375	961.139892578125	47.98093032836914	136.7010040283203	965.4396362304688	27.48928260803223	206.391357421875	1033.43310546875	27.42047882080078	221.3704528808594	1219.617919921875	-217.2124176025391	185.2564544677734	1147.482055664062	42.59038543701172	156.7392120361328	1391.861328125	0.3383349180221558	199.2223205566406	1317.615844726562	-154.6278533935547	229.2275695800781	1259.537231445312	63.02381896972656	53.44364547729492	1348.051025390625	-4.563469886779785	20.43897819519043	1354.509765625	-104.0157470703125	-47.82861709594727	1231.262084960938	-113.4956970214844	-30.77849388122559	1043.343627929688	-189.818115234375	2.441817283630371	1005.900573730469	-116.8890838623047	39.89973831176758	881.9137573242188	-349.1141357421875	-6.68490743637085	965.5862426757812	-252.9347991943359	161.3935089111328	781.7752685546875	-449.4184265136719	72.02652740478516	818.4331665039062	-401.0733642578125	122.19189453125	858.1447143554688	-420.2776794433594	324.8393249511719	1387.60107421875	-29.62130737304688	388.2500305175781	1338.931274414062	-1.260666012763977	446.249755859375	1087.4033203125	65.25386810302734	355.0813903808594	1064.63818359375	46.57251358032227	482.520263671875	852.4139404296875	-11.00462436676025	522.9169311523438	865.811279296875	63.21771240234375	477.6640930175781	1023.019104003906	61.32372665405273	499.9055786132812	669.3814086914062	21.69099617004395	542.2612915039062	752.67578125	62.40500640869141	251.0263671875	1530.461547851562	-6.822494506835938	132.1658630371094	1612.932739257812	-162.9760589599609	224.8309783935547	1607.805541992188	-163.5696411132812	104.2809371948242	1529.634887695312	-9.697773933410645	46.09351348876953	922.1076049804688	-52.39508819580078	420.9131774902344	913.4806518554688	-46.20849990844727	356.9999694824219	929.41796875	-168.2527465820312	103.8954544067383	923.2008056640625	-187.3631134033203	109.5774688720703	459.9471740722656	-58.94503021240234	78.5362548828125	600.5693969726562	-79.28816986083984	120.5866928100586	50.6757926940918	138.6048889160156	106.2736282348633	246.3315582275391	40.30307388305664	269.0014343261719	35.72763061523438	-16.64887237548828	269.4444274902344	32.80698394775391	63.93844223022461	164.914306640625	37.81095123291016	23.47178840637207	154.5449371337891	56.3104248046875	206.189697265625	409.4977416992188	478.3783569335938	-235.7022705078125	433.783935546875	722.0857543945312	-146.8924102783203	409.482666015625	376.6517333984375	-298.0094299316406	353.6905212402344	142.9064025878906	-570.9368286132812	315.6872253417969	115.5886688232422	-519.7874145507812	427.1151123046875	84.26457977294922	-501.1923522949219	364.0771789550781	34.93618392944336	-351.0269470214844	101.6363906860352	917.7604370117188	-339.1818237304688	520.8360595703125	738.077880859375	-3.847500085830688	412.1836547851562	53.20286560058594	-401.5697631835938	nan	nan	nan	nan	nan	nan	
201	2	313.5777282714844	959.1438598632812	39.92233276367188	139.8263092041016	963.9881591796875	19.97638130187988	209.6271209716797	1031.78564453125	20.10622024536133	224.6548461914062	1218.150756835938	-224.6225128173828	188.7825469970703	1145.815673828125	35.21126556396484	160.626220703125	1390.328002929688	-6.71277379989624	202.6493072509766	1316.119873046875	-161.9442138671875	233.0970764160156	1257.723388671875	55.6009521484375	57.24658203125	1346.688598632812	-11.36063289642334	23.86956405639648	1353.073364257812	-110.7314682006836	-44.91458892822266	1229.6904296875	-118.8173522949219	-28.7213077545166	1040.90771484375	-192.8236541748047	5.818498134613037	1004.112976074219	-119.9126968383789	41.35971069335938	879.9618530273438	-352.5713500976562	-4.770684719085693	963.2263793945312	-255.8203887939453	162.9125823974609	782.1650390625	-455.2643432617188	73.07236480712891	817.2763061523438	-405.4744262695312	122.9645156860352	857.7281494140625	-425.0995788574219	328.6706237792969	1385.732788085938	-37.10881042480469	392.0370178222656	1336.933837890625	-8.895672798156738	449.73486328125	1085.201904296875	57.12448120117188	358.658447265625	1062.4033203125	38.28839874267578	486.7585754394531	850.485107421875	-19.4206371307373	526.6484985351562	863.7805786132812	55.10675048828125	481.2744445800781	1020.879089355469	53.2169189453125	504.96240234375	667.4015502929688	12.74807453155518	546.5634155273438	750.8297729492188	54.05761337280273	254.9685211181641	1528.85693359375	-13.83080005645752	135.2445678710938	1611.585327148438	-169.1902618408203	227.9039916992188	1606.575561523438	-170.2800140380859	108.2272262573242	1527.885009765625	-15.98117160797119	48.87248611450195	920.810791015625	-59.52700424194336	423.5971984863281	911.329345703125	-54.67776107788086	359.4750366210938	927.6332397460938	-176.6443481445312	106.4585723876953	921.603515625	-194.7811737060547	111.0833587646484	458.7827453613281	-63.89832305908203	80.37757873535156	599.3843994140625	-84.97344207763672	121.1696624755859	51.57561874389648	138.56787109375	107.2807006835938	246.2293090820312	37.79953384399414	269.177734375	35.48849868774414	-16.79647254943848	269.7052917480469	32.9056282043457	63.72628784179688	165.164794921875	38.02997970581055	23.43095397949219	155.1099243164062	57.91445159912109	206.0718383789062	409.2571411132812	477.6340026855469	-246.8820190429688	435.3805236816406	720.6029663085938	-156.5324401855469	408.1151123046875	374.5491638183594	-308.7489013671875	349.4207763671875	136.8947448730469	-576.14697265625	311.8995361328125	109.8106231689453	-524.6056518554688	423.4829406738281	79.35890197753906	-505.9873657226562	361.9562377929688	32.20426177978516	-355.0628356933594	103.0077743530273	916.5765991210938	-343.4120788574219	525.69140625	736.33056640625	-12.38868999481201	409.6097106933594	49.96288299560547	-406.178466796875	nan	nan	nan	nan	nan	nan	
